<svg width="35" height="35" viewBox="0 0 35 35" fill="none" xmlns="http://www.w3.org/2000/svg">
<path d="M28 17.7569C28 17.0336 27.93 16.2869 27.8133 15.5869H17.71V19.7169H23.4966C23.2633 21.0469 22.4933 22.2136 21.35 22.9602L24.8033 25.6436C26.8333 23.7536 28 21.0002 28 17.7569Z" fill="#4280EF"/>
<path d="M17.71 28.2105C20.6033 28.2105 23.03 27.2538 24.8033 25.6205L21.35 22.9605C20.3933 23.6138 19.1566 23.9871 17.71 23.9871C14.91 23.9871 12.5533 22.0971 11.69 19.5771L8.14331 22.3071C9.96331 25.9238 13.65 28.2105 17.71 28.2105Z" fill="#34A353"/>
<path d="M11.69 19.5534C11.2467 18.2234 11.2467 16.7767 11.69 15.4467L8.14336 12.6934C6.62669 15.7267 6.62669 19.2967 8.14336 22.3067L11.69 19.5534Z" fill="#F6B704"/>
<path d="M17.71 11.0371C19.2266 11.0138 20.72 11.5971 21.8166 12.6471L24.8733 9.56711C22.9366 7.74711 20.37 6.76711 17.71 6.79045C13.65 6.79045 9.96331 9.07711 8.14331 12.6938L11.69 15.4471C12.5533 12.9038 14.91 11.0371 17.71 11.0371Z" fill="#E54335"/>
</svg>
