<svg width="24" height="24" viewBox="0 0 24 24" fill="none" xmlns="http://www.w3.org/2000/svg">
<path d="M20 17.8564C17.5677 19.2607 14.8086 20 12 20C9.19141 20 6.43231 19.2607 4 17.8564L12 4L20 17.8564Z" stroke="black" stroke-width="1.5"/>
<path d="M20 17.8564C17.5677 19.2607 14.8086 20 12 20C9.19141 20 6.43231 19.2607 4 17.8564L12 4L20 17.8564Z" stroke="black" stroke-width="1.5"/>
<path d="M5.49892 15.2602C7.41129 16.3667 9.63169 17 12 17C14.3683 17 16.5887 16.3667 18.5011 15.2602" stroke="black" stroke-width="1.5"/>
<circle cx="10" cy="14" r="1" fill="black"/>
<circle cx="13" cy="13" r="1" fill="black"/>
<circle cx="12" cy="10" r="1" fill="black"/>
</svg>
