<svg width="296" height="566" viewBox="0 0 296 566" fill="none" xmlns="http://www.w3.org/2000/svg">
<path fill-rule="evenodd" clip-rule="evenodd" d="M0 20C0 8.95432 8.9543 0 20 0L275.862 0C286.908 0 295.862 8.95431 295.862 20L295.862 332.335C295.69 332.332 295.516 332.331 295.343 332.331C280.149 332.331 267.833 344.647 267.833 359.841C267.833 375.034 280.149 387.351 295.343 387.351C295.516 387.351 295.69 387.349 295.862 387.346L295.862 545.772C295.862 556.818 286.908 565.772 275.862 565.772H20C8.9543 565.772 0 556.818 0 545.772L0 387.346C14.9536 387.069 26.9905 374.86 26.9905 359.841C26.9905 344.821 14.9536 332.612 0 332.335L0 20Z" fill="#E8E8E8"/>
</svg>
