<svg width="17" height="17" viewBox="0 0 17 17" fill="none" xmlns="http://www.w3.org/2000/svg">
<path fill-rule="evenodd" clip-rule="evenodd" d="M1.91494 10.7359L1.37661 14.4759C1.33335 14.791 1.44055 15.108 1.66609 15.3322C1.89164 15.5563 2.20935 15.6615 2.52411 15.6163L6.26411 15.078C6.77107 15.0081 7.24123 14.7743 7.60286 14.4122L14.502 7.50592C15.4227 6.6167 15.7919 5.29989 15.4678 4.06162C15.1437 2.82335 14.1767 1.85632 12.9384 1.5322C11.7001 1.20808 10.3833 1.57732 9.49411 2.498L2.58078 9.39717C2.21868 9.7588 1.98484 10.229 1.91494 10.7359ZM9.41619 8.33467C9.20878 8.54182 8.87277 8.54182 8.66536 8.33467C8.45821 8.12726 8.45821 7.79125 8.66536 7.58384L11.6474 4.60175C11.8568 4.40671 12.183 4.41246 12.3853 4.61477C12.5876 4.81708 12.5933 5.14327 12.3983 5.35259L9.41619 8.33467Z" fill="black"/>
</svg>
